<svg width="24" height="24" viewBox="0 0 24 24" fill="none" xmlns="http://www.w3.org/2000/svg">
<path d="M12 2C12.5304 2 13.0391 2.21071 13.4142 2.58579C13.7893 2.96086 14 3.46957 14 4C14 5.11 13.11 6 12 6C11.4696 6 10.9609 5.78929 10.5858 5.41421C10.2107 5.03914 9.99999 4.53043 9.99999 4C9.99999 3.46957 10.2107 2.96086 10.5858 2.58579C10.9609 2.21071 11.4696 2 12 2ZM12.39 14.79C13.8105 14.7845 15.2299 14.868 16.64 15.04C16.7 12.32 16.46 9.92 16 9C15.87 8.73 15.69 8.5 15.5 8.3L7.42999 15.22C8.78999 15 10.5 14.79 12.39 14.79ZM7.45999 17C7.58999 18.74 7.84999 20.5 8.26999 22H10.34C10.05 21.12 9.83999 20.09 9.67999 19C9.67999 19 12 18.56 14.32 19C14.16 20.09 13.95 21.12 13.66 22H15.73C16.17 20.45 16.43 18.61 16.56 16.79C15.1763 16.6227 13.7838 16.5392 12.39 16.54C10.46 16.54 8.77999 16.75 7.45999 17ZM12 7C12 7 8.99999 7 7.99999 9C7.65999 9.68 7.43999 11.15 7.36999 12.96L13.92 7.34C12.93 7 12 7 12 7ZM18.57 5.67L17.43 4.34L13.92 7.35C14.47 7.54 15.05 7.84 15.5 8.3L18.57 5.67ZM20.67 15.83C20.58 15.8 19.14 15.33 16.64 15.04C16.63 15.61 16.6 16.2 16.56 16.79C18.81 17.07 20.1 17.5 20.12 17.5L20.67 15.83ZM7.36999 12.96L3.42999 16.34L4.31999 17.82C4.33999 17.81 5.49999 17.36 7.45999 17C7.34999 15.59 7.31999 14.2 7.36999 12.96Z" fill="black"/>
</svg>
