<svg width="80" height="80" viewBox="0 0 80 80" fill="none" xmlns="http://www.w3.org/2000/svg">
<circle cx="40" cy="40" r="40" fill="#04C000"/>
<path d="M24.0384 46.1538C22.5445 46.1538 21.3133 47.3712 21.529 48.8495C22.106 52.8033 23.9418 56.4942 26.8008 59.3532C30.3014 62.8538 35.0494 64.8205 40.0001 64.8205C44.9508 64.8205 49.6987 62.8539 53.1994 59.3532C56.0584 56.4942 57.8942 52.8033 58.4712 48.8495C58.6869 47.3712 57.4557 46.1538 55.9617 46.1538C54.4678 46.1538 53.2845 47.3773 52.9817 48.8402C52.4613 51.3547 51.217 53.6846 49.3739 55.5277C46.8878 58.0138 43.516 59.4105 40.0001 59.4105C36.4842 59.4105 33.1123 58.0138 30.6262 55.5277C28.7832 53.6846 27.5389 51.3547 27.0185 48.8402C26.7157 47.3773 25.5324 46.1538 24.0384 46.1538Z" fill="#F2F2F2"/>
<circle cx="25.6411" cy="27.282" r="6.76923" fill="#0D0D0D"/>
<circle cx="25.6411" cy="27.282" r="6.76923" fill="#0D0D0D"/>
<circle cx="25.6411" cy="27.282" r="6.76923" fill="#0D0D0D"/>
<circle cx="25.6411" cy="27.282" r="6.76923" fill="#0D0D0D"/>
<circle cx="25.6411" cy="27.282" r="6.76923" fill="#F2F2F2"/>
<circle cx="54.3591" cy="27.282" r="6.76923" fill="#0D0D0D"/>
<circle cx="54.3591" cy="27.282" r="6.76923" fill="#0D0D0D"/>
<circle cx="54.3591" cy="27.282" r="6.76923" fill="#0D0D0D"/>
<circle cx="54.3591" cy="27.282" r="6.76923" fill="#0D0D0D"/>
<circle cx="54.3591" cy="27.282" r="6.76923" fill="#F2F2F2"/>
</svg>
