<svg width="24" height="24" viewBox="0 0 24 24" fill="none" xmlns="http://www.w3.org/2000/svg">
<g clip-path="url(#clip0_3_457)">
<path fill-rule="evenodd" clip-rule="evenodd" d="M12 19C12.2652 19 12.5196 19.1054 12.7071 19.2929C12.8947 19.4804 13 19.7348 13 20V21C13 21.2652 12.8947 21.5196 12.7071 21.7071C12.5196 21.8946 12.2652 22 12 22C11.7348 22 11.4804 21.8946 11.2929 21.7071C11.1054 21.5196 11 21.2652 11 21V20C11 19.7348 11.1054 19.4804 11.2929 19.2929C11.4804 19.1054 11.7348 19 12 19ZM16.95 16.95C17.1222 16.7778 17.3513 16.6744 17.5943 16.6591C17.8374 16.6438 18.0776 16.7177 18.27 16.867L18.364 16.95L19.071 17.657C19.2504 17.837 19.3545 18.0784 19.3622 18.3324C19.37 18.5863 19.2808 18.8337 19.1128 19.0243C18.9447 19.2148 18.7105 19.3343 18.4575 19.3584C18.2046 19.3825 17.952 19.3094 17.751 19.154L17.657 19.071L16.95 18.364C16.7625 18.1765 16.6572 17.9222 16.6572 17.657C16.6572 17.3918 16.7625 17.1375 16.95 16.95ZM7.05002 16.95C7.23749 17.1375 7.3428 17.3918 7.3428 17.657C7.3428 17.9222 7.23749 18.1765 7.05002 18.364L6.34302 19.071C6.15442 19.2532 5.90181 19.354 5.63962 19.3517C5.37742 19.3494 5.12661 19.2442 4.9412 19.0588C4.75579 18.8734 4.65062 18.6226 4.64834 18.3604C4.64607 18.0982 4.74686 17.8456 4.92902 17.657L5.63602 16.95C5.82355 16.7625 6.07785 16.6572 6.34302 16.6572C6.60818 16.6572 6.86249 16.7625 7.05002 16.95ZM12 2C12.245 2.00003 12.4814 2.08996 12.6644 2.25272C12.8474 2.41547 12.9644 2.63975 12.993 2.883L13 3V4.1L21.175 12.276C21.784 12.884 21.398 13.906 20.575 13.994L20.461 14H16.9C16.6724 15.1105 16.0743 16.1108 15.2038 16.8369C14.3333 17.563 13.2419 17.9719 12.1086 17.9965C10.9753 18.0211 9.86717 17.6601 8.96591 16.9725C8.06465 16.2849 7.42367 15.3116 7.14802 14.212L7.10002 14H3.54002C2.67902 14 2.23002 13.005 2.74902 12.361L2.82602 12.276L11 4.1V3C11 2.73478 11.1054 2.48043 11.2929 2.29289C11.4804 2.10536 11.7348 2 12 2ZM14.83 14H9.17002C9.37162 14.5703 9.74085 15.0663 10.2293 15.4231C10.7177 15.7799 11.3026 15.9808 11.9072 15.9994C12.5118 16.018 13.1078 15.8534 13.6173 15.5273C14.1267 15.2012 14.5258 14.7288 14.762 14.172L14.83 14Z" fill="black"/>
</g>
<defs>
<clipPath id="clip0_3_457">
<rect width="24" height="24" fill="white"/>
</clipPath>
</defs>
</svg>
