<svg width="24" height="20" viewBox="0 0 24 20" fill="none" xmlns="http://www.w3.org/2000/svg">
<g clip-path="url(#clip0_3_472)">
<path d="M21.57 12.1695C21.5775 12.0985 21.6 12.0312 21.6 11.9603C21.6 10.6413 20.5238 9.56895 19.2 9.56895C18.7275 9.56895 18.2925 9.71094 17.9213 9.94259C17.2612 8.49287 15.8025 7.47656 14.1 7.47656C11.7825 7.47656 9.9 9.34851 9.9 11.6613C9.9 11.7734 9.92625 11.8781 9.93375 11.9864C8.07375 12.1247 6.6 13.6566 6.6 15.5472C6.6 17.5275 8.2125 19.1342 10.2 19.1342H20.4C22.3875 19.1342 24 17.5275 24 15.5472C24 13.9742 22.98 12.6552 21.57 12.1695ZM5.43 11.3251C3.79125 9.69226 3.79125 7.0394 5.43 5.41033C7.06875 3.77751 9.73125 3.77751 11.37 5.41033C11.7338 5.77276 12.0038 6.19124 12.2063 6.63213C12.5738 6.49389 12.96 6.40795 13.3575 6.3519L14.475 3.03023C14.625 2.5856 14.2013 2.16712 13.755 2.31284L10.4625 3.40761L8.90625 0.313859C8.7 -0.10462 8.1 -0.10462 7.89 0.313859L6.3375 3.40761L3.04125 2.31284C2.59875 2.16712 2.175 2.58933 2.32125 3.03023L3.42 6.3108L0.315 7.86141C-0.105 8.07065 -0.105 8.66474 0.315 8.87398L3.42 10.4209L2.32125 13.7014C2.17125 14.1461 2.595 14.5645 3.04125 14.4188L5.895 13.4735C6.12375 13.0102 6.42 12.588 6.78 12.2218C6.28875 12.02 5.8275 11.7211 5.43 11.3251ZM5.25 8.36583C5.25 9.89028 6.34875 11.1607 7.79625 11.4409C8.09625 11.2653 8.4075 11.1121 8.74125 11.0037C8.94375 9.34851 9.90375 7.9212 11.2688 7.0805C10.7738 5.99321 9.675 5.23098 8.4 5.23098C6.66375 5.23098 5.25 6.63587 5.25 8.36583Z" fill="black"/>
</g>
<defs>
<clipPath id="clip0_3_472">
<rect width="24" height="19.1304" fill="white"/>
</clipPath>
</defs>
</svg>
