<svg width="24" height="22" viewBox="0 0 24 22" fill="none" xmlns="http://www.w3.org/2000/svg">
<path d="M10.6667 1.33018H7.55C6.42083 1.33018 5.4125 2.041 5.0375 3.101L0.129167 16.9266C0.0458333 17.1677 0 17.4255 0 17.6832C0 18.9344 1.02083 19.9528 2.275 19.9528H10.6667V17.2924C10.6667 16.5567 11.2625 15.9623 12 15.9623C12.7375 15.9623 13.3333 16.5567 13.3333 17.2924V19.9528H21.725C22.9833 19.9528 24 18.9344 24 17.6832C24 17.4255 23.9542 17.1677 23.8708 16.9266L18.9625 3.101C18.5833 2.041 17.5792 1.33018 16.45 1.33018H13.3333V3.99056C13.3333 4.72632 12.7375 5.32075 12 5.32075C11.2625 5.32075 10.6667 4.72632 10.6667 3.99056V1.33018ZM13.3333 9.31132V11.9717C13.3333 12.7075 12.7375 13.3019 12 13.3019C11.2625 13.3019 10.6667 12.7075 10.6667 11.9717V9.31132C10.6667 8.57556 11.2625 7.98113 12 7.98113C12.7375 7.98113 13.3333 8.57556 13.3333 9.31132Z" fill="black"/>
</svg>
