<svg width="80" height="81" viewBox="0 0 80 81" fill="none" xmlns="http://www.w3.org/2000/svg">
<circle cx="40" cy="40" r="40" fill="#FF8C01"/>
<path d="M55.6283 61.6667C57.1222 61.6667 58.3535 60.4493 58.1377 58.971C57.5608 55.0172 55.725 51.3263 52.866 48.4673C49.3653 44.9667 44.6174 43 39.6667 43C34.716 43 29.968 44.9667 26.4673 48.4673C23.6084 51.3263 21.7726 55.0172 21.1956 58.971C20.9799 60.4493 22.2111 61.6667 23.705 61.6667C25.199 61.6667 26.3823 60.4432 26.6851 58.9803C27.2054 56.4658 28.4498 54.1359 30.2928 52.2928C32.7789 49.8067 36.1508 48.4101 39.6667 48.4101C43.1825 48.4101 46.5544 49.8067 49.0405 52.2928C50.8836 54.1359 52.1279 56.4658 52.6483 58.9803C52.951 60.4432 54.1344 61.6667 55.6283 61.6667Z" fill="#F2F2F2"/>
<circle cx="25.6411" cy="27.282" r="6.76923" fill="#0D0D0D"/>
<circle cx="25.6411" cy="27.282" r="6.76923" fill="#0D0D0D"/>
<circle cx="25.6411" cy="27.282" r="6.76923" fill="#0D0D0D"/>
<circle cx="25.6411" cy="27.282" r="6.76923" fill="#0D0D0D"/>
<circle cx="25.6411" cy="27.282" r="6.76923" fill="#F2F2F2"/>
<circle cx="54.3591" cy="27.282" r="6.76923" fill="#0D0D0D"/>
<circle cx="54.3591" cy="27.282" r="6.76923" fill="#0D0D0D"/>
<circle cx="54.3591" cy="27.282" r="6.76923" fill="#0D0D0D"/>
<circle cx="54.3591" cy="27.282" r="6.76923" fill="#0D0D0D"/>
<circle cx="54.3591" cy="27.282" r="6.76923" fill="#F2F2F2"/>
</svg>
